<svg fill="#ffffff" xmlns="http://www.w3.org/2000/svg" viewBox="0 0 30 30" width="30px" height="30px"><path d="M21.852,8H6.157c-0.61,0-1.078,0.541-0.989,1.145l2.147,14.669C7.443,25.1,8.6,26,9.886,26h8.357c1.286,0,2.314-0.9,2.571-2.186l2.029-14.677C22.926,8.536,22.459,8,21.852,8z"/><path fill="none" stroke="#ffffff" stroke-miterlimit="10" stroke-width="2" d="M21.304,12H24c1.217,0,2.151,1.077,1.98,2.282l-0.569,4C25.271,19.267,24.427,20,23.431,20h-3.127"/><path fill="none" stroke="#ffffff" stroke-linecap="round" stroke-linejoin="round" stroke-miterlimit="10" stroke-width="2" d="M14 5L14 2M18 5L18 3M10 5L10 4"/></svg>